<svg width="54" height="121" viewBox="0 0 54 121" fill="none" xmlns="http://www.w3.org/2000/svg">
<g filter="url(#filter0_d_64_92)">
<path d="M22.024 2.512C22.624 3.376 23.488 4.84 23.968 5.8L22.672 6.376C22.192 5.416 21.4 3.976 20.752 3.064L22.024 2.512ZM24.64 1.552C25.288 2.44 26.2 3.928 26.656 4.816L25.36 5.392C24.856 4.36 24.064 2.992 23.392 2.104L24.64 1.552ZM12.952 5.464C12.832 4.84 12.664 4.312 12.496 3.808L14.656 3.448C14.68 3.904 14.8 4.576 14.872 5.104C15.04 6.184 17.68 19.336 18.016 20.92C18.184 21.616 18.376 22.432 18.592 23.104L16.408 23.512C16.288 22.696 16.216 21.976 16.048 21.256C15.784 19.768 13.216 6.712 12.952 5.464ZM6.184 8.92C6.784 8.896 7.408 8.848 8.176 8.752C10.336 8.512 18.64 7.192 20.92 6.76C21.616 6.616 22.216 6.472 22.624 6.352L23.032 8.368C22.672 8.416 21.928 8.512 21.304 8.608C18.808 9.016 10.624 10.312 8.536 10.672C7.864 10.792 7.312 10.912 6.592 11.056L6.184 8.92ZM6.112 15.856C6.664 15.832 7.6 15.736 8.224 15.64C10.768 15.304 19.72 13.816 22.576 13.288C23.512 13.12 24.184 12.976 24.712 12.808L25.096 14.824C24.592 14.872 23.824 15.016 22.936 15.16C19.744 15.664 11.104 17.056 8.656 17.512C7.72 17.656 7.072 17.8 6.544 17.944L6.112 15.856ZM37.24 7.312C37.288 7.744 37.432 8.248 37.576 8.872C38.128 10.864 40.744 20.368 41.248 22C41.392 22.456 41.608 23.2 41.776 23.632L39.712 24.184C39.664 23.632 39.544 23.008 39.376 22.432C38.872 20.704 36.304 11.032 35.752 9.256C35.584 8.68 35.392 8.2 35.176 7.816L37.24 7.312ZM48.76 10.624C47.752 12.64 45.28 16.024 43.624 17.632L41.944 16.768C43.432 15.496 45.256 13.264 46.072 11.848C45.016 12.04 33.784 14.296 32.08 14.656L31.6 12.832C32.272 12.76 32.872 12.688 33.592 12.544C34.792 12.352 45.256 10.384 46.624 10.072C46.936 10 47.296 9.88 47.536 9.76L48.76 10.624ZM15.592 38.2C16 39.16 17.176 42.328 17.464 43.36L15.688 44.008C15.424 42.904 14.32 39.856 13.816 38.8L15.592 38.2ZM24.28 39.544C24.112 40.024 23.992 40.408 23.896 40.72C23.272 43.36 22.216 45.952 20.512 48.112C18.28 50.92 15.352 52.792 12.688 53.8L11.104 52.192C13.864 51.376 16.936 49.552 18.904 47.104C20.608 45.016 21.832 41.944 22.216 38.872L24.28 39.544ZM10 39.4C10.48 40.408 11.752 43.552 12.184 44.824L10.384 45.496C10 44.248 8.704 40.912 8.224 40.072L10 39.4ZM47.32 34.768C47.32 35.656 48.016 36.352 48.904 36.352C49.768 36.352 50.488 35.656 50.488 34.768C50.488 33.904 49.768 33.184 48.904 33.184C48.016 33.184 47.32 33.904 47.32 34.768ZM46.216 34.768C46.216 33.28 47.416 32.08 48.904 32.08C50.392 32.08 51.592 33.28 51.592 34.768C51.592 36.256 50.392 37.456 48.904 37.456C47.416 37.456 46.216 36.256 46.216 34.768ZM48.304 36.376C48.136 36.712 48.04 37.12 47.944 37.576C47.416 40.096 46.264 43.984 44.344 46.432C42.16 49.264 39.304 51.472 34.912 52.864L33.28 51.064C37.936 49.888 40.624 47.848 42.64 45.28C44.344 43.12 45.448 39.76 45.784 37.456C44.392 37.456 34.888 37.456 33.496 37.456C32.536 37.456 31.72 37.504 31.12 37.552V35.416C31.768 35.488 32.728 35.584 33.52 35.584C34.888 35.584 44.464 35.584 45.544 35.584C45.928 35.584 46.384 35.56 46.84 35.44L48.304 36.376ZM15.04 63.04C14.824 63.976 14.56 65.296 13.936 66.904C13.336 68.368 12.448 69.976 11.488 71.224C12.424 70.672 13.792 70.336 14.848 70.336C16.696 70.336 18.136 71.44 18.136 73.384C18.136 74.632 18.184 77.392 18.208 78.88H16.36C16.456 77.608 16.48 75.136 16.456 73.888C16.432 72.496 15.472 71.848 14.224 71.848C12.688 71.848 11.176 72.616 10.072 73.6C9.376 74.272 8.704 75.136 7.912 76.12L6.256 74.896C9.712 71.584 11.32 68.8 12.136 66.76C12.664 65.44 13 64 13.072 62.872L15.04 63.04ZM6.808 65.632C8.104 65.8 9.76 65.872 10.864 65.872C14.104 65.872 18.256 65.68 21.64 65.08V66.856C18.28 67.36 13.816 67.576 10.768 67.576C9.736 67.576 8.152 67.528 6.808 67.432V65.632ZM25.144 71.416C24.544 71.608 23.68 71.944 23.032 72.184C21.328 72.856 19.048 73.768 16.72 74.968C14.344 76.216 12.664 77.512 12.664 79.168C12.664 81.04 14.512 81.328 16.984 81.328C18.856 81.328 21.448 81.112 23.56 80.728L23.488 82.672C21.664 82.888 19 83.08 16.912 83.08C13.504 83.08 10.744 82.336 10.744 79.432C10.744 76.504 13.72 74.704 16.576 73.24C18.856 72.064 20.8 71.32 22.384 70.576C23.104 70.24 23.704 69.976 24.376 69.64L25.144 71.416ZM39.184 69.136V72.208H48.184V69.136H39.184ZM39.184 64.6V67.648H48.184V64.6H39.184ZM37.528 63.04H49.912V73.792H37.528V63.04ZM37.24 76.528H50.296V78.184H37.24V76.528ZM35.392 81.496H51.112V83.152H35.392V81.496ZM29.104 67.624H36.472V69.328H29.104V67.624ZM32.032 62.128H33.736V77.704H32.032V62.128ZM28.768 78.112C30.688 77.416 33.592 76.168 36.4 74.968L36.808 76.576C34.264 77.776 31.576 78.976 29.488 79.912L28.768 78.112ZM42.832 63.904H44.488V73.168H44.632V82.312H42.688V73.168H42.832V63.904ZM20.056 93.424C19.888 94.024 19.744 94.864 19.624 95.32C18.76 99.28 17.08 104.296 15.16 106.936C13.336 109.48 11.584 111.28 9.4 111.28C7.576 111.28 6.04 109.768 6.04 106.96C6.04 103.936 7.888 100.744 10.432 99.04C12.808 97.432 15.16 96.808 17.632 96.808C22.336 96.808 25.744 99.976 25.744 104.656C25.744 109.456 22.312 112.36 17.152 113.08L16.048 111.376C21.064 110.92 23.824 108.304 23.824 104.584C23.824 101.056 21.28 98.464 17.416 98.464C15.088 98.464 13 99.256 11.128 100.648C9.088 102.112 7.792 104.68 7.792 106.84C7.792 108.424 8.488 109.384 9.568 109.384C11.128 109.384 12.808 107.344 14.032 105.4C15.616 102.952 17.224 98.56 17.824 95.056C17.92 94.576 17.992 93.784 17.968 93.232L20.056 93.424ZM10.216 94.528C10.336 95.176 10.528 95.968 10.72 96.64C11.344 98.992 12.688 102.688 13.696 104.368C14.512 105.76 15.64 107.344 16.792 108.448L15.28 109.672C14.32 108.616 13.432 107.44 12.52 105.88C11.344 104.008 9.952 100.336 9.04 97.336C8.8 96.568 8.536 95.776 8.224 95.152L10.216 94.528ZM33.712 94.336C34.24 94.384 34.912 94.408 35.392 94.408C36.664 94.408 42.352 94.24 43.624 94.12C44.344 94.048 44.68 94 44.944 93.904L46.048 95.32C45.616 95.608 45.136 95.92 44.68 96.28C43.504 97.192 40.24 100 38.368 101.536C39.472 101.176 40.624 101.056 41.704 101.056C45.688 101.056 48.544 103.432 48.544 106.672C48.544 110.536 45.352 113.056 40.264 113.056C37 113.056 35.008 111.64 35.008 109.624C35.008 107.992 36.496 106.504 38.704 106.504C41.896 106.504 43.504 108.76 43.672 111.184L41.944 111.472C41.8 109.432 40.624 107.968 38.704 107.968C37.6 107.968 36.76 108.64 36.76 109.48C36.76 110.656 38.08 111.352 39.976 111.352C44.056 111.352 46.624 109.672 46.624 106.672C46.624 104.296 44.368 102.544 41.224 102.544C37.24 102.544 35.08 104.224 32.056 107.32L30.664 105.928C32.656 104.296 35.752 101.704 37.12 100.528C38.464 99.424 41.488 96.904 42.688 95.824C41.416 95.896 36.616 96.088 35.368 96.16C34.816 96.208 34.288 96.232 33.76 96.304L33.712 94.336Z" fill="#CCCCCC" fill-opacity="0.13" shape-rendering="crispEdges"/>
</g>
<defs>
<filter id="filter0_d_64_92" x="0.0400391" y="0.552002" width="53.552" height="119.528" filterUnits="userSpaceOnUse" color-interpolation-filters="sRGB">
<feFlood flood-opacity="0" result="BackgroundImageFix"/>
<feColorMatrix in="SourceAlpha" type="matrix" values="0 0 0 0 0 0 0 0 0 0 0 0 0 0 0 0 0 0 127 0" result="hardAlpha"/>
<feOffset dx="-2" dy="3"/>
<feGaussianBlur stdDeviation="2"/>
<feComposite in2="hardAlpha" operator="out"/>
<feColorMatrix type="matrix" values="0 0 0 0 0.932639 0 0 0 0 0.595833 0 0 0 0 1 0 0 0 1 0"/>
<feBlend mode="normal" in2="BackgroundImageFix" result="effect1_dropShadow_64_92"/>
<feBlend mode="normal" in="SourceGraphic" in2="effect1_dropShadow_64_92" result="shape"/>
</filter>
</defs>
</svg>
