<svg width="1415" height="779" viewBox="0 0 1415 779" fill="none" xmlns="http://www.w3.org/2000/svg">
<path fill-rule="evenodd" clip-rule="evenodd" d="M665.51 772.549L660.51 773.549L661.49 778.452L666.49 777.452L665.51 772.549Z" fill="white"/>
<path fill-rule="evenodd" clip-rule="evenodd" d="M367.51 18.5486L362.51 19.5486L363.49 24.4515L368.49 23.4515L367.51 18.5486Z" fill="white"/>
<path fill-rule="evenodd" clip-rule="evenodd" d="M323.51 395.549L318.51 396.549L319.49 401.451L324.49 400.451L323.51 395.549Z" fill="white"/>
<path fill-rule="evenodd" clip-rule="evenodd" d="M1173.51 699.549L1168.51 700.549L1169.49 705.452L1174.49 704.452L1173.51 699.549Z" fill="white"/>
<path fill-rule="evenodd" clip-rule="evenodd" d="M1173.51 699.549L1168.51 700.549L1169.49 705.452L1174.49 704.452L1173.51 699.549Z" fill="white"/>
<path fill-rule="evenodd" clip-rule="evenodd" d="M1173.51 699.549L1168.51 700.549L1169.49 705.452L1174.49 704.452L1173.51 699.549Z" fill="white"/>
<path fill-rule="evenodd" clip-rule="evenodd" d="M1413.51 19.5486L1408.51 20.5486L1409.49 25.4515L1414.49 24.4515L1413.51 19.5486Z" fill="white"/>
<path fill-rule="evenodd" clip-rule="evenodd" d="M929.51 72.5486L924.51 73.5486L925.49 78.4515L930.49 77.4515L929.51 72.5486Z" fill="white"/>
<path fill-rule="evenodd" clip-rule="evenodd" d="M842.51 680.549L837.51 681.549L838.49 686.452L843.49 685.452L842.51 680.549Z" fill="white"/>
<path fill-rule="evenodd" clip-rule="evenodd" d="M1082.51 0.548554L1077.51 1.54855L1078.49 6.45146L1083.49 5.45146L1082.51 0.548554Z" fill="white"/>
<path fill-rule="evenodd" clip-rule="evenodd" d="M5.81836 131.64L8.58279 127.355L4.38138 124.645L1.61695 128.929L5.81836 131.64Z" fill="white"/>
<path fill-rule="evenodd" clip-rule="evenodd" d="M625.704 393.188L628.468 388.903L624.267 386.193L621.502 390.477L625.704 393.188Z" fill="white"/>
<path fill-rule="evenodd" clip-rule="evenodd" d="M326.674 777.435L329.438 773.151L325.237 770.44L322.472 774.725L326.674 777.435Z" fill="white"/>
<path fill-rule="evenodd" clip-rule="evenodd" d="M598.51 53.5486L593.51 54.5486L594.49 59.4515L599.49 58.4515L598.51 53.5486Z" fill="white"/>
</svg>
